<?xml version="1.0" standalone="no"?>
<!DOCTYPE svg PUBLIC "-//W3C//DTD SVG 20010904//EN"
 "http://www.w3.org/TR/2001/REC-SVG-20010904/DTD/svg10.dtd">
<svg version="1.0" xmlns="http://www.w3.org/2000/svg"
 width="1024.000000pt" height="1024.000000pt" viewBox="0 0 1024.000000 1024.000000"
 preserveAspectRatio="xMidYMid meet">

<g transform="translate(0.000000,1024.000000) scale(0.100000,-0.100000)"
fill="#000000" stroke="none">
<path d="M5225 8995 c-317 -45 -601 -137 -783 -254 -226 -145 -416 -463 -496
-831 l-23 -105 -74 -39 c-330 -171 -575 -339 -729 -496 -85 -88 -120 -148
-120 -209 0 -77 45 -131 150 -180 138 -64 276 -84 555 -79 229 3 231 3 173
-74 -100 -131 -114 -294 -39 -455 35 -75 108 -155 175 -193 l49 -28 -2 -94
c-1 -84 1 -99 27 -153 32 -67 103 -137 155 -154 24 -8 39 -25 62 -68 90 -172
281 -361 452 -446 44 -22 67 -41 82 -67 60 -106 231 -200 367 -200 39 0 41 -2
53 -40 11 -37 10 -45 -9 -75 -52 -84 -214 -198 -390 -274 l-85 -37 -80 43
c-242 130 -482 131 -628 3 -19 -16 -39 -30 -44 -30 -8 0 -87 78 -127 127 -18
22 -18 23 7 52 70 84 102 203 101 371 -2 191 -41 337 -144 545 -248 494 -736
843 -1154 823 -63 -3 -118 -12 -146 -23 -111 -44 -326 -219 -403 -327 -106
-148 -124 -351 -55 -613 125 -472 531 -920 966 -1065 122 -40 234 -54 330 -40
79 12 183 53 237 94 l31 24 68 -91 c39 -54 63 -93 56 -95 -28 -10 -79 -65 -93
-101 -44 -110 -27 -215 48 -299 27 -29 64 -58 90 -69 41 -16 45 -21 45 -53 1
-102 112 -210 215 -210 15 0 25 -10 33 -34 19 -51 49 -84 103 -111 63 -32 164
-34 241 -5 l53 20 20 -27 c73 -103 168 -129 256 -70 47 31 89 96 96 145 3 23
9 42 14 42 5 0 36 27 69 59 60 59 89 74 161 84 l36 5 6 -101 c5 -103 52 -309
96 -427 46 -123 194 -335 351 -503 40 -43 71 -79 69 -81 -2 -2 -53 -15 -113
-30 -136 -34 -214 -66 -292 -121 -69 -50 -105 -93 -139 -168 -50 -112 -41
-193 29 -263 65 -66 170 -90 426 -100 141 -6 255 2 328 22 20 6 22 3 22 -37 0
-51 27 -115 61 -146 40 -36 129 -71 229 -90 74 -13 146 -17 320 -16 419 1 705
59 828 167 27 23 36 28 40 17 3 -8 15 -25 28 -38 27 -27 55 -29 204 -9 132 18
209 46 249 92 30 34 31 37 31 137 0 170 -37 293 -120 403 l-39 51 35 34 c22
21 34 42 34 60 l0 26 163 6 c89 3 196 13 237 22 461 100 780 421 855 859 17
103 20 329 4 443 -12 87 -41 211 -69 292 l-19 53 24 33 c64 83 70 206 20 400
-187 722 -638 1374 -1220 1760 -279 186 -567 310 -823 355 -67 12 -73 15 -68
34 59 214 64 442 11 577 -5 12 10 19 77 33 205 44 436 137 546 221 99 75 133
138 113 213 -42 155 -435 302 -974 366 l-98 11 -38 92 c-157 380 -451 622
-866 714 -121 27 -373 34 -510 14z m375 -166 c317 -39 572 -185 727 -414 45
-67 97 -165 90 -171 -2 -2 -66 0 -143 6 -634 46 -1405 -52 -2003 -254 -74 -25
-137 -43 -140 -41 -9 10 60 198 105 288 140 279 311 411 652 506 288 80 512
105 712 80z m919 -773 c221 -26 435 -64 627 -111 229 -57 255 -67 149 -60
-306 21 -412 26 -760 31 -521 9 -667 -3 -1375 -112 -467 -72 -937 -197 -1417
-378 -180 -67 -365 -142 -425 -171 l-53 -26 30 26 c163 143 482 341 728 451
410 185 906 307 1453 359 201 19 852 13 1043 -9z m136 -345 c77 -31 125 -78
125 -121 0 -17 -3 -30 -7 -28 -226 116 -454 38 -562 -191 l-37 -79 -68 29
c-175 75 -275 187 -295 331 -5 35 -8 64 -7 65 9 10 306 20 526 19 254 -1 267
-2 325 -25z m-1000 -43 c28 -189 105 -315 254 -415 l59 -40 -297 -163 c-163
-90 -318 -175 -346 -191 l-49 -27 -59 63 c-41 45 -78 74 -125 97 -62 31 -74
33 -167 33 -90 0 -105 -3 -153 -28 -114 -60 -182 -167 -190 -297 l-4 -76 -62
1 c-33 0 -73 -4 -88 -8 -22 -7 -27 -5 -33 14 -10 30 -82 106 -128 136 -44 28
-135 53 -193 53 -34 0 -43 4 -47 22 -8 28 -4 33 48 64 33 19 64 27 120 31 69
5 78 8 86 30 30 81 -125 135 -238 84 -36 -17 -42 -17 -47 -4 -8 20 -6 209 2
257 8 45 14 48 252 121 362 111 816 208 1246 265 76 10 142 19 146 19 3 1 9
-18 13 -41z m1030 -229 c108 -51 166 -162 173 -334 5 -127 -8 -216 -48 -327
-73 -202 -218 -299 -360 -242 -25 10 -45 13 -51 7 -5 -5 -2 -42 7 -93 12 -61
15 -113 10 -185 -11 -192 -69 -345 -192 -510 -68 -90 -312 -343 -391 -403
l-42 -33 -6 38 c-11 67 -26 94 -49 91 -15 -2 -26 -20 -46 -78 -34 -102 -69
-158 -135 -218 -98 -90 -240 -142 -344 -127 -140 19 -218 65 -258 151 -17 37
-34 59 -52 66 -150 61 -212 100 -309 192 -48 46 -142 157 -142 169 0 2 28 10
63 17 238 46 424 201 444 370 7 59 -14 100 -51 100 -28 0 -46 -20 -81 -90 -51
-102 -171 -189 -310 -225 -108 -27 -186 -17 -254 33 -96 72 -92 244 10 403 23
35 66 103 96 151 59 95 102 138 139 138 47 0 102 -38 142 -98 141 -207 349
-280 523 -185 64 34 104 80 143 163 28 59 31 74 31 165 0 55 -3 116 -8 136
l-7 35 152 84 c84 46 258 141 385 212 230 127 233 128 262 114 16 -9 46 -18
67 -22 59 -9 88 19 115 109 12 40 29 88 39 107 24 46 86 105 130 124 53 23
151 20 205 -5z m-1637 -563 c82 -42 140 -119 167 -221 29 -112 12 -210 -50
-282 -89 -104 -235 -94 -354 26 -201 200 -111 528 137 506 29 -3 74 -16 100
-29z m-843 -220 c44 -26 105 -103 105 -133 0 -7 -10 -28 -22 -46 l-21 -33 -35
38 c-98 109 -183 -29 -96 -155 l30 -42 -26 -47 c-14 -26 -29 -50 -32 -53 -20
-20 -120 71 -156 142 -27 54 -43 137 -36 186 9 57 47 130 81 156 41 31 143 25
208 -13z m2799 -86 c219 -42 492 -158 711 -301 392 -255 720 -626 953 -1079
128 -247 242 -562 273 -751 11 -61 10 -71 -8 -101 -27 -48 -141 -102 -283
-136 -108 -25 -129 -27 -350 -27 -244 0 -270 3 -507 57 l-92 21 25 41 c14 23
59 108 99 189 125 252 192 498 202 738 6 134 -4 192 -35 204 -27 10 -49 -28
-62 -107 -39 -254 -103 -483 -186 -672 -46 -104 -123 -246 -134 -246 -4 0 -12
18 -19 40 -19 63 -105 182 -185 257 -179 165 -437 278 -668 290 -86 5 -98 8
-98 24 0 43 53 296 85 410 73 252 176 449 299 569 48 46 56 69 31 90 -37 30
-142 -25 -229 -121 -99 -110 -189 -299 -262 -551 -35 -122 -94 -399 -94 -441
0 -15 -11 -29 -36 -42 -61 -33 -139 -126 -171 -205 -26 -66 -30 -71 -68 -80
-179 -45 -381 -127 -498 -202 -26 -17 -49 -29 -51 -27 -42 48 -236 462 -223
475 1 2 39 21 82 43 44 22 99 56 122 75 22 20 44 36 47 36 3 0 6 -15 6 -33 0
-41 26 -215 36 -240 11 -28 55 -18 75 18 26 43 49 141 49 202 0 28 3 54 8 56
4 3 84 -40 177 -94 140 -82 176 -99 205 -97 28 2 36 8 38 26 6 42 -147 182
-283 258 l-56 31 56 43 c96 74 261 255 339 373 115 173 202 375 293 682 35
117 37 120 75 138 58 28 132 90 169 141 18 25 34 46 35 46 2 0 50 -9 108 -20z
m-4129 -404 c143 -39 338 -156 483 -290 171 -159 329 -413 398 -641 25 -80 28
-106 28 -230 0 -127 -3 -147 -28 -219 -15 -44 -30 -85 -34 -92 -4 -7 -7 54 -7
134 -1 127 -4 160 -27 243 -118 428 -449 828 -831 1004 -85 39 -218 75 -278
75 -49 0 -44 13 11 29 47 14 211 6 285 -13z m-157 -175 c161 -59 312 -161 461
-312 242 -243 421 -616 421 -877 0 -189 -92 -282 -278 -282 -98 0 -176 21
-298 80 -331 160 -620 516 -708 872 -68 273 -13 502 132 549 53 17 182 3 270
-30z m4187 -1196 c244 -71 440 -217 527 -393 26 -52 32 -79 36 -148 4 -75 2
-89 -22 -138 -35 -71 -91 -120 -190 -166 -185 -86 -364 -103 -831 -78 -126 6
-242 8 -258 4 -21 -5 -33 -19 -52 -62 -14 -31 -48 -83 -76 -117 -29 -34 -58
-77 -66 -95 -8 -19 -17 -96 -22 -182 -9 -161 -21 -200 -64 -200 -48 0 -107
141 -107 255 0 84 -12 115 -45 115 -75 0 -85 -172 -19 -334 13 -33 22 -61 20
-63 -7 -8 -80 34 -103 59 -49 53 -93 208 -93 332 0 64 -11 86 -42 86 -46 0
-78 -123 -60 -234 7 -39 15 -81 18 -93 18 -63 -79 9 -114 86 -36 77 -37 201
-3 316 87 291 234 463 520 609 239 122 494 185 637 156 73 -14 221 -85 293
-139 58 -44 70 -48 89 -29 19 19 14 41 -20 93 -60 91 -201 175 -361 217 -45
12 -84 23 -86 24 -2 2 10 20 27 42 35 44 112 89 174 102 68 14 195 4 293 -25z
m-1520 -264 c19 -39 55 -105 80 -147 l46 -77 -49 -51 c-27 -28 -67 -73 -87
-101 -48 -63 -130 -230 -156 -317 l-21 -68 -51 0 -52 0 -2 89 c-2 146 -46 274
-137 405 -32 46 -38 60 -26 64 83 28 322 176 379 236 19 20 36 36 38 36 1 0
18 -31 38 -69z m-938 -106 c226 -53 396 -204 474 -421 32 -86 32 -243 2 -300
-21 -39 -84 -104 -102 -104 -5 0 -53 46 -107 103 -90 93 -96 102 -74 105 51 6
109 33 116 55 9 28 -27 57 -71 57 -88 0 -190 55 -235 127 -25 39 -28 52 -23
89 4 32 1 50 -11 69 -28 43 -55 30 -96 -44 -43 -80 -93 -122 -152 -128 -34 -4
-49 0 -72 18 -31 24 -56 74 -56 112 0 53 32 130 73 174 84 92 195 121 334 88z
m-537 -307 c0 -25 58 -133 84 -157 33 -31 33 -37 -4 -56 -96 -49 -196 19 -187
128 5 58 37 97 79 97 16 0 28 -5 28 -12z m4998 -110 c41 -144 55 -247 55 -403
0 -167 -12 -241 -62 -372 -103 -266 -334 -454 -659 -535 -70 -18 -116 -22
-237 -22 -82 0 -162 3 -177 7 -22 6 -36 27 -83 124 -146 304 -365 537 -563
600 -67 21 -105 11 -110 -31 -4 -34 14 -55 88 -106 190 -129 407 -424 506
-687 l24 -63 -42 -26 c-97 -61 -252 -117 -430 -156 -81 -17 -138 -22 -268 -22
-186 -1 -242 10 -366 69 -188 91 -454 408 -544 649 l-29 78 25 22 c32 27 54
114 54 212 0 163 6 185 77 273 86 109 82 107 376 92 340 -18 547 0 727 64 145
52 236 118 296 215 43 70 28 70 209 2 223 -83 355 -152 528 -274 96 -68 121
-76 133 -43 17 44 -80 150 -224 246 -42 29 -80 54 -84 58 -4 3 59 4 140 3 81
-2 190 1 242 8 107 13 277 51 330 74 19 8 38 15 41 16 3 0 15 -33 27 -72z
m-4544 -94 c12 -31 6 -79 -14 -112 -18 -30 -110 -96 -187 -136 -75 -38 -158
-2 -151 65 3 29 16 39 142 115 142 86 196 104 210 68z m148 -225 c27 -36 35
-102 15 -133 -24 -36 -131 -86 -184 -86 -36 0 -50 6 -74 29 -16 16 -29 34 -29
39 0 5 38 34 83 65 46 30 95 69 108 86 28 36 54 36 81 0z m2138 -1492 l65 -21
-70 -9 c-103 -12 -190 -34 -249 -64 -105 -53 -204 -132 -234 -188 -11 -19 -11
-19 -12 5 0 39 20 101 43 131 41 56 176 138 270 164 59 16 95 13 187 -18z"/>
<path d="M4790 7294 c-115 -36 -176 -103 -148 -161 18 -38 54 -40 117 -9 27
14 81 31 118 37 60 11 77 10 152 -10 47 -11 91 -21 98 -21 20 0 53 37 53 60 0
37 -55 86 -118 104 -71 20 -210 20 -272 0z"/>
<path d="M6500 7274 c-50 -31 -100 -142 -100 -221 0 -63 53 -54 103 18 24 35
30 38 48 28 57 -30 61 -139 8 -243 -36 -71 -35 -100 4 -104 41 -5 90 31 123
90 28 51 29 59 29 178 0 117 -2 128 -28 178 -44 83 -123 116 -187 76z"/>
<path d="M5177 6093 c-28 -27 47 -108 110 -118 58 -10 73 -15 73 -27 0 -5 -17
-42 -37 -82 -79 -152 -242 -274 -400 -298 -60 -9 -82 -8 -143 6 -80 20 -97 14
-86 -28 4 -16 23 -35 53 -53 92 -53 267 -42 408 27 128 62 271 214 313 332 9
26 22 48 27 48 6 0 26 -16 45 -35 39 -40 64 -44 81 -14 24 45 -33 149 -100
184 -15 7 -67 18 -117 24 -49 5 -109 17 -133 25 -46 17 -83 20 -94 9z"/>
<path d="M4877 6632 c-21 -23 -22 -90 -3 -135 7 -18 28 -45 45 -60 110 -92
157 74 53 186 -30 32 -71 36 -95 9z"/>
<path d="M2397 5833 c-18 -40 -22 -65 -21 -153 2 -245 120 -499 336 -726 207
-216 411 -333 606 -349 79 -7 127 4 127 29 0 13 -23 26 -85 49 -471 178 -851
634 -901 1082 -6 55 -13 103 -15 107 -11 18 -26 5 -47 -39z"/>
<path d="M1209 4564 c-10 -12 -10 -22 -2 -42 6 -15 24 -56 38 -92 27 -64 61
-193 105 -400 68 -319 240 -542 508 -655 82 -34 176 -60 256 -71 l49 -7 33
-74 c50 -108 139 -381 168 -513 23 -106 56 -323 56 -372 0 -20 -1 -21 -20 -3
-11 10 -20 26 -20 35 0 35 -66 147 -115 196 -30 30 -79 64 -120 84 -59 28 -84
34 -155 37 -91 4 -152 -14 -158 -48 -4 -21 130 -200 192 -257 68 -63 132 -100
195 -113 66 -14 109 -49 152 -124 35 -61 35 -65 5 -65 -35 0 -189 -28 -286
-51 -47 -12 -130 -40 -185 -64 -65 -28 -144 -52 -225 -68 -205 -41 -285 -81
-259 -128 14 -26 53 -45 145 -68 183 -46 453 -70 869 -78 751 -14 1317 71
1223 184 -23 29 -96 54 -226 78 -97 19 -149 35 -222 69 -162 77 -367 125 -550
130 l-95 2 -7 190 c-9 271 18 426 108 612 36 75 49 92 67 92 53 0 199 44 285
86 74 36 107 60 170 122 94 94 137 167 197 331 25 69 59 156 77 192 36 78 34
114 -10 126 -15 5 -92 7 -172 7 -174 -2 -257 -20 -400 -90 -163 -81 -279 -219
-311 -372 -9 -44 -9 -89 1 -202 l13 -145 -28 -65 c-16 -36 -36 -92 -46 -125
-9 -33 -19 -53 -22 -45 -3 8 -17 60 -32 115 -15 55 -51 169 -80 253 -59 169
-59 170 -20 347 50 228 20 406 -101 591 -179 273 -574 474 -932 474 -79 0
-102 -3 -113 -16z m464 -310 c161 -104 268 -201 360 -326 118 -161 177 -304
177 -434 l0 -77 -53 104 c-124 244 -329 541 -478 692 -47 48 -84 87 -82 87 3
0 37 -21 76 -46z m1457 -642 c-119 -82 -305 -289 -419 -467 l-32 -50 6 60 c9
83 55 172 132 255 77 83 134 126 239 180 80 41 118 52 74 22z"/>
</g>
</svg>
